<svg xmlns="http://www.w3.org/2000/svg" version="1.1" xlink="http://www.w3.org/1999/xlink" xmlns:svgjs="http://svgjs.com/svgjs" width="100%" height="100%" viewBox="8.331999778747559 8.125 83.3320083618164 83.54299926757812"><g fill="#123c97"><path d="M45.418 69.582L35 80a10.56 10.56 0 0 1-15 0c-2.082-1.668-3.332-4.582-3.332-7.5s1.25-5.418 2.918-7.5l17.5-17.5a10.56 10.56 0 0 1 15 0c1.668 1.668 4.168 1.668 5.832 0 1.668-1.668 1.668-4.168 0-5.832-7.5-7.5-19.582-7.5-26.668 0l-17.5 17.5C10 62.918 8.332 67.5 8.332 72.5s2.082 10 5.418 13.332C17.5 90 22.5 91.668 27.5 91.668S37.082 90 40.832 86.25L51.25 75.832c1.668-1.668 1.668-4.168 0-5.832-1.668-1.668-4.168-2.082-5.832-.418z"></path><path d="M86.25 13.75c-7.5-7.5-19.582-7.5-26.668 0L49.164 24.168c-1.668 1.668-1.668 4.168 0 5.832 1.668 1.668 4.168 1.668 5.832 0l10.418-10.418a10.56 10.56 0 0 1 15 0c1.668 2.086 2.918 5 2.918 7.918s-1.25 5.418-2.918 7.5l-17.5 17.5a10.56 10.56 0 0 1-15 0c-1.668-1.668-4.168-1.668-5.832 0-1.668 1.668-1.668 4.168 0 5.832 3.75 3.75 8.75 5.418 13.332 5.418 5 0 9.582-1.668 13.332-5.418l17.5-17.5c3.75-3.75 5.418-8.332 5.418-13.332.004-5.418-2.082-10-5.414-13.75z"></path></g></svg>
